<svg width="24" height="24" xmlns="http://www.w3.org/2000/svg">

 <g>
  <title>background</title>
  <rect fill="none" id="canvas_background" height="402" width="582" y="-1" x="-1"/>
 </g>
 <g>
  <title>Layer 1</title>
  <path id="svg_1" d="m0,0l24,0l0,24l-24,0l0,-24z" fill="none"/>
  <path id="svg_2" d="m20,4l-16,0c-1.1,0 -1.99,0.9 -1.99,2l-0.01,12c0,1.1 0.9,2 2,2l16,0c1.1,0 2,-0.9 2,-2l0,-12c0,-1.1 -0.9,-2 -2,-2zm0,14l-16,0l0,-10l8,5l8,-5l0,10zm-8,-7l-8,-5l16,0l-8,5z"/>
  <ellipse stroke="#000" ry="3.999996" rx="4.088886" id="svg_4" cy="18.616663" cx="19.866662" stroke-width="0" fill="#da0b19"/>
 </g>
</svg>